# xmcd
#
# Track frame offsets: 
#        150
#        15297
#        46933
#        77269
#        106938
#        133745
#        162391
#        193995
#        206644
#        227745
#        253456
#
# Disc length: 3617 seconds
#
# Revision: 0
# Processed by: cddbd v1.5.2PL0 Copyright (c) Steve Scherf et al.
# Submitted via: ExactAudioCopy v1.0b3
#
DISCID=8f0e1f0b
DTITLE=Lyliam - Santo Rosario -Dolor
DYEAR=2012
DGENRE=Vocal
TTITLE0=Virgen de Guadalupe
TTITLE1=Peticiones
TTITLE2=Misterio de Dolor I
TTITLE3=Misterio de Dolor II
TTITLE4=Misterio de Dolor III
TTITLE5=Misterio de Dolor IV
TTITLE6=Misterio de Dolor V
TTITLE7=Salve
TTITLE8=Letanías
TTITLE9=Oraciones Finales
TTITLE10=Testimonio
EXTD=
EXTT0=Virgen de Guadalupe
EXTT1=
EXTT2=
EXTT3=
EXTT4=
EXTT5=
EXTT6=
EXTT7=
EXTT8=
EXTT9=
EXTT10=
PLAYORDER=
